<svg id="svg" version="1.1" xmlns="http://www.w3.org/2000/svg" xmlns:xlink="http://www.w3.org/1999/xlink" width="400" height="127.11182622687048" viewBox="0, 0, 400,127.11182622687048"><g id="svgg"><path id="path0" d="M168.833 63.167 L 168.833 125.500 181.167 125.500 C 189.278 125.500,193.500 125.443,193.500 125.333 C 193.500 125.232,194.250 125.167,195.417 125.167 C 196.471 125.167,197.333 125.103,197.333 125.025 C 197.333 124.947,198.324 124.831,199.534 124.767 C 200.745 124.703,201.813 124.587,201.909 124.510 C 202.005 124.432,202.440 124.324,202.875 124.268 C 204.892 124.010,205.167 123.958,205.167 123.834 C 205.167 123.761,205.467 123.656,205.833 123.601 C 206.200 123.545,206.800 123.455,207.168 123.399 C 207.535 123.344,207.877 123.231,207.928 123.149 C 207.978 123.067,208.240 123.000,208.510 123.000 C 208.779 123.000,209.000 122.925,209.000 122.833 C 209.000 122.742,209.262 122.667,209.583 122.667 C 209.904 122.667,210.167 122.592,210.167 122.500 C 210.167 122.408,210.387 122.333,210.657 122.333 C 210.926 122.333,211.193 122.258,211.250 122.167 C 211.307 122.075,211.536 122.000,211.760 122.000 C 211.984 122.000,212.167 121.925,212.167 121.833 C 212.167 121.742,212.392 121.667,212.667 121.667 C 212.942 121.667,213.167 121.592,213.167 121.500 C 213.167 121.408,213.318 121.333,213.502 121.333 C 213.687 121.333,213.968 121.267,214.127 121.186 C 214.286 121.105,214.604 120.963,214.833 120.870 C 215.063 120.777,215.524 120.581,215.859 120.434 C 216.193 120.287,216.553 120.167,216.658 120.167 C 216.763 120.167,217.160 120.017,217.539 119.833 C 217.919 119.650,218.328 119.500,218.448 119.500 C 218.568 119.500,218.667 119.425,218.667 119.333 C 218.667 119.242,218.817 119.167,219.000 119.167 C 219.183 119.167,219.333 119.092,219.333 119.000 C 219.333 118.908,219.447 118.833,219.586 118.833 C 219.819 118.833,220.472 118.530,220.667 118.332 C 220.713 118.285,221.144 118.066,221.625 117.845 C 222.106 117.624,222.500 117.381,222.500 117.305 C 222.500 117.229,222.650 117.167,222.833 117.167 C 223.017 117.167,223.167 117.092,223.167 117.000 C 223.167 116.908,223.317 116.833,223.500 116.833 C 223.683 116.833,223.833 116.758,223.833 116.667 C 223.833 116.575,223.946 116.500,224.083 116.500 C 224.221 116.500,224.333 116.425,224.333 116.333 C 224.333 116.242,224.446 116.167,224.583 116.167 C 224.721 116.167,224.833 116.100,224.833 116.018 C 224.833 115.936,225.021 115.822,225.250 115.765 C 225.479 115.707,225.667 115.587,225.667 115.497 C 225.667 115.407,225.817 115.333,226.000 115.333 C 226.183 115.333,226.333 115.258,226.333 115.167 C 226.333 115.075,226.432 115.000,226.552 115.000 C 226.672 115.000,226.916 114.869,227.094 114.708 C 227.271 114.548,227.623 114.310,227.875 114.180 C 228.127 114.050,228.333 113.881,228.333 113.805 C 228.333 113.729,228.446 113.667,228.583 113.667 C 228.721 113.667,228.833 113.592,228.833 113.500 C 228.833 113.408,228.907 113.333,228.998 113.333 C 229.173 113.333,229.628 112.989,230.263 112.375 C 230.477 112.169,230.711 112.000,230.784 112.000 C 230.857 112.000,231.116 111.831,231.359 111.625 C 231.603 111.419,231.971 111.138,232.177 111.000 C 233.949 109.819,240.833 103.159,240.833 102.626 C 240.833 102.549,241.133 102.201,241.500 101.852 C 241.867 101.504,242.167 101.159,242.167 101.087 C 242.167 101.015,242.301 100.834,242.466 100.686 C 242.631 100.538,242.946 100.154,243.167 99.833 C 243.387 99.513,243.609 99.212,243.660 99.167 C 243.711 99.121,243.901 98.802,244.081 98.458 C 244.262 98.115,244.467 97.833,244.538 97.833 C 244.609 97.833,244.667 97.755,244.667 97.660 C 244.667 97.564,244.817 97.325,245.000 97.128 C 245.183 96.931,245.333 96.672,245.333 96.552 C 245.333 96.432,245.408 96.333,245.500 96.333 C 245.592 96.333,245.667 96.235,245.667 96.115 C 245.667 95.995,245.817 95.735,246.000 95.538 C 246.183 95.342,246.333 95.065,246.333 94.924 C 246.333 94.782,246.408 94.667,246.500 94.667 C 246.592 94.667,246.667 94.517,246.667 94.333 C 246.667 94.150,246.742 94.000,246.833 94.000 C 246.925 94.000,247.000 93.920,247.000 93.822 C 247.000 93.724,247.211 93.330,247.469 92.947 C 248.021 92.127,248.833 90.426,248.833 90.089 C 248.833 89.959,248.908 89.807,249.000 89.750 C 249.092 89.693,249.167 89.464,249.167 89.240 C 249.167 89.016,249.242 88.833,249.333 88.833 C 249.425 88.833,249.500 88.683,249.500 88.500 C 249.500 88.317,249.575 88.167,249.667 88.167 C 249.758 88.167,249.833 87.979,249.833 87.750 C 249.833 87.521,249.908 87.333,250.000 87.333 C 250.092 87.333,250.167 87.146,250.167 86.917 C 250.167 86.688,250.242 86.500,250.333 86.500 C 250.425 86.500,250.500 86.313,250.500 86.083 C 250.500 85.854,250.575 85.667,250.667 85.667 C 250.758 85.667,250.833 85.442,250.833 85.167 C 250.833 84.892,250.908 84.667,251.000 84.667 C 251.092 84.667,251.167 84.442,251.167 84.167 C 251.167 83.892,251.242 83.667,251.333 83.667 C 251.425 83.667,251.500 83.484,251.500 83.260 C 251.500 83.036,251.575 82.807,251.667 82.750 C 251.758 82.693,251.833 82.389,251.833 82.073 C 251.833 81.758,251.908 81.500,252.000 81.500 C 252.092 81.500,252.167 81.242,252.167 80.927 C 252.167 80.611,252.242 80.307,252.333 80.250 C 252.425 80.193,252.500 79.851,252.500 79.490 C 252.500 79.129,252.567 78.833,252.650 78.833 C 252.732 78.833,252.841 78.515,252.892 78.125 C 252.943 77.735,253.063 76.985,253.159 76.458 C 253.540 74.365,253.639 73.531,253.653 72.302 C 253.660 71.596,253.742 70.973,253.833 70.917 C 253.930 70.857,254.000 69.918,254.000 68.667 C 254.000 67.415,254.070 66.477,254.167 66.417 C 254.269 66.354,254.333 65.026,254.333 62.990 C 254.333 60.886,254.272 59.667,254.167 59.667 C 254.064 59.667,254.000 58.837,254.000 57.510 C 254.000 56.324,253.936 55.314,253.858 55.265 C 253.780 55.217,253.663 54.221,253.598 53.052 C 253.533 51.883,253.417 50.849,253.340 50.755 C 253.264 50.661,253.159 50.208,253.107 49.750 C 252.928 48.167,252.798 47.498,252.649 47.406 C 252.567 47.355,252.500 47.023,252.500 46.667 C 252.500 46.311,252.425 45.973,252.333 45.917 C 252.242 45.860,252.167 45.598,252.167 45.333 C 252.167 45.069,252.092 44.807,252.000 44.750 C 251.908 44.693,251.833 44.431,251.833 44.167 C 251.833 43.902,251.758 43.640,251.667 43.583 C 251.575 43.527,251.500 43.302,251.500 43.083 C 251.500 42.865,251.425 42.640,251.333 42.583 C 251.242 42.527,251.167 42.302,251.167 42.083 C 251.167 41.865,251.092 41.640,251.000 41.583 C 250.908 41.527,250.833 41.302,250.833 41.083 C 250.833 40.865,250.758 40.640,250.667 40.583 C 250.575 40.527,250.500 40.297,250.500 40.073 C 250.500 39.850,250.425 39.667,250.333 39.667 C 250.242 39.667,250.167 39.479,250.167 39.250 C 250.167 39.021,250.092 38.833,250.000 38.833 C 249.908 38.833,249.833 38.683,249.833 38.500 C 249.833 38.317,249.758 38.167,249.667 38.167 C 249.575 38.167,249.500 37.942,249.500 37.667 C 249.500 37.392,249.425 37.167,249.333 37.167 C 249.242 37.167,249.167 37.017,249.167 36.833 C 249.167 36.650,249.092 36.500,249.000 36.500 C 248.908 36.500,248.833 36.376,248.833 36.225 C 248.833 35.901,247.988 34.109,247.798 34.028 C 247.726 33.997,247.667 33.828,247.667 33.653 C 247.667 33.477,247.592 33.333,247.500 33.333 C 247.408 33.333,247.333 33.183,247.333 33.000 C 247.333 32.817,247.258 32.667,247.167 32.667 C 247.075 32.667,247.000 32.517,247.000 32.333 C 247.000 32.150,246.925 32.000,246.833 32.000 C 246.742 32.000,246.667 31.887,246.667 31.750 C 246.667 31.613,246.592 31.500,246.500 31.500 C 246.408 31.500,246.333 31.387,246.333 31.250 C 246.333 31.113,246.258 31.000,246.167 31.000 C 246.075 31.000,246.000 30.888,246.000 30.752 C 246.000 30.524,245.738 30.134,245.208 29.577 C 245.094 29.456,245.000 29.256,245.000 29.132 C 245.000 29.008,244.850 28.799,244.667 28.667 C 244.483 28.535,244.333 28.305,244.333 28.156 C 244.333 28.007,244.183 27.749,244.000 27.583 C 243.817 27.417,243.666 27.200,243.665 27.099 C 243.664 26.999,243.402 26.640,243.082 26.303 C 242.762 25.965,242.500 25.639,242.500 25.578 C 242.500 25.517,242.275 25.257,242.000 25.000 C 241.725 24.743,241.500 24.446,241.500 24.341 C 241.500 24.235,241.050 23.707,240.500 23.167 C 239.950 22.627,239.500 22.124,239.500 22.050 C 239.500 21.857,237.165 19.500,236.973 19.500 C 236.885 19.500,236.860 19.425,236.917 19.333 C 236.973 19.242,236.928 19.167,236.815 19.167 C 236.703 19.167,236.493 19.053,236.347 18.915 C 236.202 18.777,235.501 18.102,234.790 17.415 C 234.078 16.728,233.431 16.167,233.352 16.167 C 233.273 16.167,232.922 15.904,232.572 15.583 C 232.221 15.262,231.872 15.000,231.795 15.000 C 231.718 15.000,231.393 14.738,231.072 14.417 C 230.751 14.096,230.420 13.833,230.335 13.833 C 230.251 13.833,229.994 13.646,229.765 13.417 C 229.536 13.188,229.270 13.000,229.174 13.000 C 229.078 13.000,229.000 12.930,229.000 12.845 C 229.000 12.759,228.859 12.644,228.687 12.590 C 228.515 12.535,228.159 12.305,227.895 12.079 C 227.632 11.852,227.332 11.667,227.229 11.667 C 227.125 11.667,226.947 11.554,226.833 11.417 C 226.719 11.279,226.513 11.167,226.374 11.167 C 226.236 11.167,226.001 11.030,225.853 10.862 C 225.705 10.695,225.340 10.452,225.042 10.322 C 224.744 10.192,224.500 10.029,224.500 9.959 C 224.500 9.890,224.402 9.833,224.281 9.833 C 224.161 9.833,223.902 9.683,223.705 9.500 C 223.508 9.317,223.232 9.167,223.090 9.167 C 222.949 9.167,222.833 9.092,222.833 9.000 C 222.833 8.908,222.683 8.833,222.500 8.833 C 222.317 8.833,222.167 8.758,222.167 8.667 C 222.167 8.575,222.023 8.500,221.847 8.500 C 221.672 8.500,221.503 8.440,221.472 8.366 C 221.394 8.178,218.238 6.667,217.924 6.667 C 217.783 6.667,217.667 6.592,217.667 6.500 C 217.667 6.408,217.517 6.333,217.333 6.333 C 217.150 6.333,217.000 6.258,217.000 6.167 C 217.000 6.075,216.775 6.000,216.500 6.000 C 216.225 6.000,216.000 5.925,216.000 5.833 C 216.000 5.742,215.850 5.667,215.667 5.667 C 215.483 5.667,215.333 5.592,215.333 5.500 C 215.333 5.408,215.146 5.333,214.917 5.333 C 214.688 5.333,214.500 5.258,214.500 5.167 C 214.500 5.075,214.275 5.000,214.000 5.000 C 213.725 5.000,213.500 4.925,213.500 4.833 C 213.500 4.742,213.317 4.667,213.093 4.667 C 212.869 4.667,212.640 4.592,212.583 4.500 C 212.527 4.408,212.302 4.333,212.083 4.333 C 211.865 4.333,211.640 4.258,211.583 4.167 C 211.527 4.075,211.297 4.000,211.073 4.000 C 210.850 4.000,210.667 3.925,210.667 3.833 C 210.667 3.742,210.446 3.667,210.177 3.667 C 209.907 3.667,209.640 3.592,209.583 3.500 C 209.527 3.408,209.222 3.333,208.907 3.333 C 208.591 3.333,208.333 3.267,208.333 3.185 C 208.333 3.103,208.090 2.995,207.792 2.944 C 207.283 2.857,206.838 2.763,205.000 2.350 C 204.588 2.257,203.931 2.178,203.542 2.174 C 203.152 2.170,202.833 2.092,202.833 2.000 C 202.833 1.907,202.386 1.833,201.823 1.833 C 201.193 1.833,200.852 1.771,200.917 1.667 C 200.982 1.562,200.585 1.500,199.843 1.500 C 199.170 1.500,198.667 1.429,198.667 1.333 C 198.667 1.235,198.059 1.167,197.177 1.167 C 196.357 1.167,195.640 1.092,195.583 1.000 C 195.516 0.891,190.859 0.833,182.157 0.833 L 168.833 0.833 168.833 63.167 M194.081 19.759 C 194.997 19.814,195.822 19.920,195.914 19.995 C 196.007 20.071,196.890 20.187,197.875 20.253 C 198.860 20.319,199.667 20.439,199.667 20.520 C 199.667 20.601,199.967 20.667,200.333 20.667 C 200.700 20.667,201.000 20.742,201.000 20.833 C 201.000 20.925,201.296 21.000,201.657 21.000 C 202.018 21.000,202.360 21.075,202.417 21.167 C 202.473 21.258,202.740 21.333,203.010 21.333 C 203.279 21.333,203.500 21.408,203.500 21.500 C 203.500 21.592,203.721 21.667,203.990 21.667 C 204.260 21.667,204.527 21.742,204.583 21.833 C 204.640 21.925,204.902 22.000,205.167 22.000 C 205.431 22.000,205.693 22.075,205.750 22.167 C 205.807 22.258,205.999 22.333,206.177 22.333 C 206.354 22.333,206.500 22.408,206.500 22.500 C 206.500 22.592,206.725 22.667,207.000 22.667 C 207.275 22.667,207.500 22.742,207.500 22.833 C 207.500 22.925,207.688 23.000,207.917 23.000 C 208.146 23.000,208.333 23.075,208.333 23.167 C 208.333 23.258,208.477 23.333,208.653 23.333 C 208.828 23.333,208.997 23.408,209.028 23.499 C 209.058 23.589,209.290 23.681,209.542 23.702 C 209.794 23.722,210.000 23.798,210.000 23.870 C 210.000 23.941,210.150 24.000,210.333 24.000 C 210.517 24.000,210.667 24.075,210.667 24.167 C 210.667 24.258,210.817 24.333,211.000 24.333 C 211.183 24.333,211.333 24.390,211.333 24.459 C 211.333 24.529,211.577 24.688,211.875 24.813 C 213.007 25.290,214.167 25.908,214.167 26.035 C 214.167 26.107,214.317 26.167,214.500 26.167 C 214.683 26.167,214.833 26.242,214.833 26.333 C 214.833 26.425,214.932 26.500,215.052 26.500 C 215.172 26.500,215.416 26.631,215.594 26.792 C 215.771 26.952,216.123 27.190,216.375 27.320 C 216.627 27.450,216.833 27.619,216.833 27.695 C 216.833 27.771,216.907 27.833,216.998 27.833 C 217.089 27.833,217.595 28.160,218.123 28.559 C 218.651 28.958,219.256 29.375,219.466 29.486 C 219.918 29.723,220.353 30.103,222.343 32.000 C 223.161 32.779,224.201 33.754,224.656 34.167 C 225.110 34.579,225.486 35.014,225.491 35.132 C 225.500 35.352,225.580 35.462,226.366 36.345 C 226.614 36.623,226.863 36.996,226.919 37.175 C 226.976 37.354,227.092 37.500,227.178 37.500 C 227.263 37.500,227.333 37.612,227.333 37.750 C 227.333 37.887,227.396 38.000,227.472 38.000 C 227.548 38.000,227.716 38.206,227.846 38.458 C 227.975 38.710,228.213 39.038,228.374 39.186 C 228.535 39.334,228.667 39.578,228.667 39.728 C 228.667 39.878,228.728 40.000,228.802 40.000 C 228.877 40.000,229.041 40.262,229.167 40.583 C 229.293 40.904,229.443 41.167,229.500 41.167 C 229.557 41.167,229.707 41.429,229.833 41.750 C 229.959 42.071,230.104 42.333,230.156 42.333 C 230.208 42.333,230.397 42.821,230.577 43.417 C 230.757 44.013,230.963 44.500,231.035 44.500 C 231.108 44.500,231.167 44.614,231.167 44.752 C 231.167 44.891,231.242 45.154,231.333 45.336 C 231.425 45.518,231.575 45.816,231.667 45.998 C 231.758 46.180,231.833 46.480,231.833 46.664 C 231.833 46.849,231.908 47.000,232.000 47.000 C 232.092 47.000,232.167 47.225,232.167 47.500 C 232.167 47.775,232.242 48.000,232.333 48.000 C 232.425 48.000,232.500 48.300,232.500 48.667 C 232.500 49.033,232.575 49.333,232.667 49.333 C 232.758 49.333,232.833 49.596,232.833 49.917 C 232.833 50.237,232.908 50.500,233.000 50.500 C 233.092 50.500,233.167 50.796,233.167 51.157 C 233.167 51.518,233.242 51.860,233.333 51.917 C 233.425 51.973,233.500 52.386,233.500 52.833 C 233.500 53.281,233.575 53.693,233.667 53.750 C 233.758 53.807,233.833 54.257,233.833 54.750 C 233.833 55.243,233.908 55.693,234.000 55.750 C 234.093 55.807,234.167 56.582,234.167 57.500 C 234.167 58.418,234.240 59.193,234.333 59.250 C 234.436 59.314,234.500 60.776,234.500 63.083 C 234.500 65.390,234.436 66.853,234.333 66.917 C 234.240 66.974,234.167 67.752,234.167 68.677 C 234.167 69.670,234.100 70.333,234.000 70.333 C 233.906 70.333,233.833 70.802,233.833 71.407 C 233.833 71.997,233.758 72.527,233.667 72.583 C 233.575 72.640,233.500 73.015,233.500 73.417 C 233.500 73.818,233.425 74.193,233.333 74.250 C 233.242 74.307,233.167 74.649,233.167 75.010 C 233.167 75.371,233.092 75.667,233.000 75.667 C 232.908 75.667,232.833 75.925,232.833 76.240 C 232.833 76.556,232.758 76.860,232.667 76.917 C 232.575 76.973,232.500 77.236,232.500 77.500 C 232.500 77.764,232.425 78.027,232.333 78.083 C 232.242 78.140,232.167 78.369,232.167 78.593 C 232.167 78.817,232.092 79.000,232.000 79.000 C 231.908 79.000,231.833 79.221,231.833 79.490 C 231.833 79.760,231.758 80.027,231.667 80.083 C 231.575 80.140,231.500 80.332,231.500 80.510 C 231.500 80.688,231.439 80.833,231.363 80.833 C 231.288 80.833,231.125 81.208,231.000 81.667 C 230.875 82.125,230.718 82.500,230.651 82.500 C 230.584 82.500,230.479 82.800,230.417 83.167 C 230.355 83.533,230.236 83.833,230.152 83.833 C 230.068 83.833,230.000 83.946,230.000 84.083 C 230.000 84.221,229.925 84.333,229.833 84.333 C 229.742 84.333,229.667 84.447,229.667 84.586 C 229.667 84.881,229.371 85.429,228.958 85.898 C 228.798 86.080,228.667 86.328,228.667 86.448 C 228.667 86.568,228.592 86.667,228.500 86.667 C 228.408 86.667,228.333 86.800,228.333 86.963 C 228.333 87.126,228.183 87.368,228.000 87.500 C 227.817 87.632,227.667 87.842,227.667 87.965 C 227.667 88.089,227.573 88.289,227.458 88.410 C 227.135 88.750,226.806 89.172,226.085 90.167 C 225.447 91.047,220.885 95.667,220.653 95.667 C 220.591 95.667,220.231 95.967,219.853 96.333 C 219.475 96.700,219.089 97.000,218.994 97.000 C 218.899 97.000,218.655 97.153,218.452 97.339 C 218.011 97.745,216.869 98.500,216.696 98.500 C 216.629 98.500,216.465 98.650,216.333 98.833 C 216.201 99.017,215.960 99.167,215.797 99.167 C 215.633 99.167,215.500 99.242,215.500 99.333 C 215.500 99.425,215.402 99.500,215.281 99.500 C 215.161 99.500,214.902 99.650,214.705 99.833 C 214.508 100.017,214.232 100.167,214.090 100.167 C 213.949 100.167,213.833 100.242,213.833 100.333 C 213.833 100.425,213.727 100.500,213.597 100.500 C 213.467 100.500,213.336 100.556,213.306 100.625 C 213.227 100.801,211.167 101.833,210.893 101.833 C 210.769 101.833,210.667 101.908,210.667 102.000 C 210.667 102.092,210.535 102.167,210.375 102.168 C 210.215 102.168,209.869 102.281,209.606 102.418 C 209.343 102.555,209.025 102.667,208.898 102.667 C 208.771 102.667,208.667 102.742,208.667 102.833 C 208.667 102.925,208.553 103.000,208.414 103.000 C 208.276 103.000,207.994 103.087,207.789 103.193 C 206.987 103.607,206.826 103.667,206.502 103.667 C 206.318 103.667,206.167 103.742,206.167 103.833 C 206.167 103.925,205.942 104.000,205.667 104.000 C 205.392 104.000,205.167 104.075,205.167 104.167 C 205.167 104.258,204.942 104.333,204.667 104.333 C 204.392 104.333,204.167 104.408,204.167 104.500 C 204.167 104.592,203.904 104.667,203.583 104.667 C 203.262 104.667,203.000 104.742,203.000 104.833 C 203.000 104.925,202.737 105.000,202.417 105.000 C 202.096 105.000,201.833 105.075,201.833 105.167 C 201.833 105.258,201.538 105.333,201.177 105.333 C 200.815 105.333,200.473 105.408,200.417 105.500 C 200.360 105.592,199.985 105.667,199.583 105.667 C 199.182 105.667,198.807 105.742,198.750 105.833 C 198.693 105.925,198.239 106.000,197.740 106.000 C 197.241 106.000,196.833 106.075,196.833 106.167 C 196.833 106.262,196.337 106.333,195.677 106.333 C 195.040 106.333,194.473 106.408,194.417 106.500 C 194.354 106.601,193.137 106.667,191.323 106.667 L 188.333 106.667 188.333 63.074 L 188.333 19.481 190.375 19.571 C 191.498 19.620,193.166 19.705,194.081 19.759 " stroke="none" fill="#fcc404" fill-rule="evenodd"></path><path id="path1" d="M327.333 48.497 C 327.196 48.588,326.577 48.663,325.958 48.664 C 325.321 48.666,324.833 48.739,324.833 48.833 C 324.833 48.925,324.463 49.000,324.010 49.000 C 323.557 49.000,323.140 49.075,323.083 49.167 C 323.027 49.258,322.685 49.333,322.323 49.333 C 321.962 49.333,321.667 49.408,321.667 49.500 C 321.667 49.592,321.367 49.667,321.000 49.667 C 320.633 49.667,320.333 49.742,320.333 49.833 C 320.333 49.925,320.108 50.000,319.833 50.000 C 319.558 50.000,319.333 50.075,319.333 50.167 C 319.333 50.258,319.146 50.333,318.917 50.333 C 318.688 50.333,318.500 50.408,318.500 50.500 C 318.500 50.592,318.275 50.667,318.000 50.667 C 317.725 50.667,317.500 50.742,317.500 50.833 C 317.500 50.925,317.275 51.000,317.000 51.000 C 316.725 51.000,316.500 51.075,316.500 51.167 C 316.500 51.258,316.350 51.333,316.167 51.333 C 315.983 51.333,315.833 51.408,315.833 51.500 C 315.833 51.592,315.683 51.667,315.500 51.667 C 315.317 51.667,315.167 51.742,315.167 51.833 C 315.167 51.925,315.031 52.000,314.865 52.000 C 314.699 52.000,314.418 52.110,314.240 52.245 C 314.062 52.379,313.785 52.492,313.625 52.495 C 313.465 52.498,313.333 52.556,313.332 52.625 C 313.330 52.775,312.523 53.167,312.217 53.167 C 312.098 53.167,312.000 53.242,312.000 53.333 C 312.000 53.425,311.902 53.500,311.781 53.500 C 311.661 53.500,311.417 53.631,311.240 53.792 C 311.062 53.952,310.710 54.190,310.458 54.320 C 310.206 54.450,310.000 54.619,310.000 54.695 C 310.000 54.771,309.904 54.833,309.787 54.833 C 309.670 54.833,309.465 54.983,309.333 55.167 C 309.201 55.350,309.008 55.500,308.905 55.500 C 308.801 55.500,308.486 55.720,308.204 55.989 C 307.923 56.258,307.481 56.589,307.221 56.725 C 306.962 56.861,306.318 57.410,305.789 57.945 C 303.329 60.433,301.667 62.170,301.667 62.252 C 301.667 62.302,301.447 62.584,301.179 62.879 C 300.528 63.596,299.833 64.632,299.833 64.887 C 299.833 65.000,299.683 65.201,299.500 65.333 C 299.317 65.465,299.167 65.635,299.167 65.710 C 299.167 65.786,299.017 66.008,298.833 66.205 C 298.650 66.402,298.500 66.661,298.500 66.781 C 298.500 66.902,298.425 67.000,298.333 67.000 C 298.242 67.000,298.167 67.116,298.167 67.257 C 298.167 67.398,298.017 67.675,297.833 67.872 C 297.650 68.069,297.500 68.328,297.500 68.448 C 297.500 68.568,297.425 68.667,297.333 68.667 C 297.242 68.667,297.167 68.817,297.167 69.000 C 297.167 69.183,297.092 69.333,297.000 69.333 C 296.908 69.333,296.833 69.483,296.833 69.667 C 296.833 69.850,296.758 70.000,296.667 70.000 C 296.575 70.000,296.500 70.114,296.500 70.252 C 296.500 70.391,296.431 70.635,296.347 70.794 C 295.942 71.559,295.515 72.667,295.411 73.220 C 295.348 73.557,295.238 73.833,295.166 73.833 C 295.095 73.833,294.994 74.077,294.943 74.375 C 294.726 75.630,294.621 76.000,294.481 76.000 C 294.400 76.000,294.333 76.300,294.333 76.667 C 294.333 77.033,294.258 77.333,294.167 77.333 C 294.075 77.333,294.000 77.633,294.000 78.000 C 294.000 78.367,293.925 78.667,293.833 78.667 C 293.742 78.667,293.667 79.079,293.667 79.583 C 293.667 80.087,293.592 80.500,293.500 80.500 C 293.405 80.500,293.333 80.997,293.333 81.657 C 293.333 82.293,293.258 82.860,293.167 82.917 C 293.062 82.981,293.000 84.807,293.000 87.843 C 293.000 90.948,293.059 92.667,293.167 92.667 C 293.263 92.667,293.333 93.191,293.333 93.907 C 293.333 94.589,293.408 95.193,293.500 95.250 C 293.592 95.307,293.667 95.682,293.667 96.083 C 293.667 96.485,293.742 96.860,293.833 96.917 C 293.925 96.973,294.000 97.353,294.000 97.760 C 294.000 98.167,294.075 98.500,294.167 98.500 C 294.258 98.500,294.333 98.721,294.333 98.990 C 294.333 99.260,294.408 99.527,294.500 99.583 C 294.592 99.640,294.667 99.944,294.667 100.260 C 294.667 100.575,294.742 100.833,294.833 100.833 C 294.925 100.833,295.000 101.016,295.000 101.240 C 295.000 101.464,295.075 101.693,295.167 101.750 C 295.258 101.807,295.334 102.017,295.334 102.218 C 295.335 102.419,295.447 102.798,295.584 103.061 C 295.721 103.323,295.833 103.608,295.833 103.694 C 295.833 103.779,295.983 104.160,296.167 104.539 C 296.350 104.919,296.500 105.328,296.500 105.448 C 296.500 105.568,296.561 105.667,296.636 105.667 C 296.710 105.667,296.874 105.929,297.000 106.250 C 297.126 106.571,297.290 106.833,297.364 106.833 C 297.439 106.833,297.500 106.983,297.500 107.167 C 297.500 107.350,297.575 107.500,297.667 107.500 C 297.758 107.500,297.833 107.616,297.833 107.757 C 297.833 107.898,297.983 108.175,298.167 108.372 C 298.350 108.569,298.500 108.828,298.500 108.948 C 298.500 109.068,298.575 109.167,298.667 109.167 C 298.758 109.167,298.833 109.265,298.833 109.385 C 298.833 109.505,298.983 109.765,299.167 109.962 C 299.350 110.158,299.500 110.398,299.500 110.493 C 299.500 110.589,299.575 110.667,299.667 110.667 C 299.758 110.667,299.833 110.779,299.833 110.917 C 299.833 111.054,299.908 111.167,300.000 111.167 C 300.092 111.167,300.167 111.264,300.167 111.382 C 300.167 111.500,300.429 111.876,300.750 112.216 C 301.071 112.556,301.333 112.903,301.333 112.988 C 301.333 113.072,301.858 113.672,302.500 114.322 C 303.142 114.971,303.668 115.558,303.670 115.626 C 303.672 115.694,303.943 115.975,304.271 116.250 C 304.599 116.525,305.430 117.294,306.118 117.958 C 306.805 118.623,307.435 119.167,307.519 119.167 C 307.602 119.167,307.905 119.392,308.193 119.667 C 308.481 119.942,308.799 120.167,308.901 120.167 C 309.003 120.167,309.289 120.354,309.536 120.583 C 309.783 120.813,310.029 121.000,310.083 121.000 C 310.137 121.000,310.342 121.150,310.538 121.333 C 310.735 121.517,310.995 121.667,311.115 121.667 C 311.235 121.667,311.333 121.742,311.333 121.833 C 311.333 121.925,311.449 122.000,311.590 122.000 C 311.732 122.000,312.008 122.150,312.205 122.333 C 312.402 122.517,312.661 122.667,312.781 122.667 C 312.902 122.667,313.000 122.742,313.000 122.833 C 313.000 122.925,313.150 123.000,313.333 123.000 C 313.517 123.000,313.667 123.075,313.667 123.167 C 313.667 123.258,313.817 123.333,314.000 123.333 C 314.183 123.333,314.333 123.390,314.333 123.459 C 314.333 123.529,314.577 123.685,314.875 123.807 C 315.173 123.928,315.567 124.089,315.750 124.164 C 315.933 124.238,316.357 124.419,316.692 124.566 C 317.027 124.713,317.495 124.833,317.734 124.833 C 317.972 124.833,318.167 124.908,318.167 125.000 C 318.167 125.092,318.354 125.167,318.583 125.167 C 318.813 125.167,319.000 125.242,319.000 125.333 C 319.000 125.425,319.225 125.500,319.500 125.500 C 319.775 125.500,320.000 125.575,320.000 125.667 C 320.000 125.758,320.300 125.833,320.667 125.833 C 321.033 125.833,321.333 125.908,321.333 126.000 C 321.333 126.092,321.633 126.167,322.000 126.167 C 322.367 126.167,322.667 126.242,322.667 126.333 C 322.667 126.425,322.989 126.500,323.383 126.500 C 323.778 126.500,324.194 126.594,324.308 126.708 C 324.469 126.869,326.219 126.917,331.917 126.917 C 337.614 126.917,339.365 126.869,339.525 126.708 C 339.640 126.594,340.056 126.500,340.450 126.500 C 340.844 126.500,341.167 126.425,341.167 126.333 C 341.167 126.242,341.467 126.167,341.833 126.167 C 342.200 126.167,342.500 126.092,342.500 126.000 C 342.500 125.908,342.721 125.833,342.990 125.833 C 343.260 125.833,343.527 125.758,343.583 125.667 C 343.640 125.575,343.902 125.500,344.167 125.500 C 344.431 125.500,344.693 125.425,344.750 125.333 C 344.807 125.242,345.036 125.167,345.260 125.167 C 345.484 125.167,345.667 125.100,345.667 125.019 C 345.667 124.938,346.002 124.821,346.413 124.759 C 346.823 124.698,347.203 124.577,347.256 124.490 C 347.309 124.404,347.499 124.333,347.677 124.333 C 347.854 124.333,348.000 124.258,348.000 124.167 C 348.000 124.075,348.116 124.000,348.258 124.000 C 348.400 124.000,348.827 123.850,349.206 123.667 C 349.585 123.483,349.994 123.333,350.115 123.333 C 350.235 123.333,350.333 123.258,350.333 123.167 C 350.333 123.075,350.483 123.000,350.667 123.000 C 350.850 123.000,351.000 122.937,351.000 122.860 C 351.000 122.783,351.319 122.617,351.708 122.492 C 352.098 122.367,352.454 122.223,352.500 122.174 C 352.581 122.086,353.703 121.470,354.457 121.100 C 354.663 120.999,354.831 120.860,354.832 120.792 C 354.833 120.723,354.983 120.667,355.167 120.667 C 355.350 120.667,355.500 120.592,355.500 120.500 C 355.500 120.408,355.609 120.333,355.742 120.333 C 355.876 120.333,356.172 120.146,356.402 119.917 C 356.631 119.688,356.890 119.500,356.979 119.500 C 357.307 119.500,360.333 116.351,360.333 116.009 C 360.333 115.821,360.271 115.667,360.195 115.667 C 360.119 115.667,359.950 115.462,359.820 115.213 C 359.690 114.963,359.302 114.467,358.958 114.109 C 358.615 113.752,358.333 113.386,358.333 113.297 C 358.333 113.207,358.108 112.924,357.833 112.667 C 357.558 112.410,357.333 112.149,357.333 112.087 C 357.333 112.025,357.033 111.686,356.667 111.333 C 356.300 110.981,356.000 110.593,355.999 110.471 C 355.999 110.350,355.661 109.878,355.249 109.424 C 354.837 108.969,354.500 108.531,354.500 108.449 C 354.500 108.367,354.275 108.090,354.000 107.833 C 353.725 107.576,353.500 107.315,353.500 107.253 C 353.500 107.191,353.200 106.852,352.833 106.500 C 352.467 106.148,352.167 105.771,352.167 105.663 C 352.167 105.555,351.953 105.267,351.691 105.023 C 351.430 104.779,351.100 104.355,350.958 104.081 C 350.816 103.807,350.468 103.340,350.184 103.043 C 349.899 102.746,349.667 102.427,349.667 102.335 C 349.667 101.987,348.726 102.167,348.363 102.585 C 348.164 102.814,348.000 103.042,348.000 103.090 C 348.000 103.138,347.756 103.423,347.458 103.723 C 347.160 104.022,346.729 104.507,346.500 104.799 C 346.271 105.091,345.969 105.331,345.828 105.332 C 345.688 105.333,345.465 105.483,345.333 105.667 C 345.201 105.850,344.976 106.000,344.833 106.000 C 344.690 106.000,344.465 106.150,344.333 106.333 C 344.201 106.517,343.986 106.667,343.855 106.667 C 343.558 106.667,341.770 107.524,341.694 107.702 C 341.664 107.774,341.495 107.833,341.319 107.833 C 341.144 107.833,341.000 107.908,341.000 108.000 C 341.000 108.092,340.775 108.167,340.500 108.167 C 340.225 108.167,340.000 108.242,340.000 108.333 C 340.000 108.425,339.817 108.500,339.593 108.500 C 339.369 108.500,339.140 108.575,339.083 108.667 C 339.027 108.758,338.802 108.833,338.583 108.833 C 338.365 108.833,338.140 108.908,338.083 109.000 C 338.027 109.092,337.689 109.167,337.333 109.167 C 336.977 109.167,336.640 109.242,336.583 109.333 C 336.527 109.425,335.964 109.500,335.333 109.500 C 334.702 109.500,334.140 109.575,334.083 109.667 C 334.026 109.760,333.248 109.833,332.323 109.833 C 331.330 109.833,330.667 109.767,330.667 109.667 C 330.667 109.570,330.142 109.500,329.427 109.500 C 328.744 109.500,328.140 109.425,328.083 109.333 C 328.027 109.242,327.722 109.167,327.407 109.167 C 327.091 109.167,326.833 109.092,326.833 109.000 C 326.833 108.908,326.613 108.833,326.343 108.833 C 326.074 108.833,325.807 108.758,325.750 108.667 C 325.693 108.575,325.464 108.500,325.240 108.500 C 325.016 108.500,324.833 108.425,324.833 108.333 C 324.833 108.242,324.615 108.167,324.347 108.167 C 324.080 108.167,323.836 108.108,323.806 108.036 C 323.775 107.964,323.150 107.613,322.417 107.255 C 321.683 106.897,321.058 106.543,321.028 106.469 C 320.997 106.394,320.859 106.333,320.720 106.333 C 320.581 106.333,320.257 106.108,320.000 105.833 C 319.743 105.558,319.442 105.333,319.331 105.333 C 319.220 105.333,318.856 105.019,318.523 104.636 C 318.189 104.252,317.467 103.467,316.917 102.892 C 315.373 101.276,315.167 101.028,315.167 100.793 C 315.167 100.672,315.017 100.465,314.833 100.333 C 314.650 100.201,314.500 99.966,314.500 99.810 C 314.500 99.655,314.444 99.503,314.375 99.472 C 314.199 99.394,313.333 97.544,313.333 97.246 C 313.333 97.111,313.258 97.000,313.167 97.000 C 313.075 97.000,313.000 96.817,313.000 96.593 C 313.000 96.369,312.925 96.140,312.833 96.083 C 312.742 96.027,312.667 95.802,312.667 95.583 C 312.667 95.365,312.592 95.140,312.500 95.083 C 312.408 95.027,312.333 94.760,312.333 94.490 C 312.333 94.221,312.258 94.000,312.167 94.000 C 312.075 94.000,312.000 93.662,312.000 93.250 C 312.000 92.837,311.925 92.500,311.833 92.500 C 311.737 92.500,311.667 91.976,311.667 91.260 C 311.667 90.578,311.592 89.973,311.500 89.917 C 311.404 89.857,311.333 88.974,311.333 87.833 C 311.333 86.693,311.404 85.809,311.500 85.750 C 311.592 85.693,311.667 85.089,311.667 84.407 C 311.667 83.691,311.737 83.167,311.833 83.167 C 311.925 83.167,312.000 82.871,312.000 82.510 C 312.000 82.149,312.075 81.807,312.167 81.750 C 312.258 81.693,312.333 81.389,312.333 81.073 C 312.333 80.758,312.408 80.500,312.500 80.500 C 312.592 80.500,312.667 80.275,312.667 80.000 C 312.667 79.725,312.742 79.500,312.833 79.500 C 312.925 79.500,313.000 79.362,313.000 79.194 C 313.000 79.026,313.262 78.349,313.583 77.690 C 313.904 77.031,314.167 76.381,314.167 76.246 C 314.167 76.111,314.242 76.000,314.333 76.000 C 314.425 76.000,314.500 75.867,314.500 75.703 C 314.500 75.540,314.650 75.299,314.833 75.167 C 315.017 75.035,315.167 74.865,315.167 74.789 C 315.167 74.713,315.335 74.477,315.542 74.263 C 316.038 73.750,316.500 73.182,316.500 73.086 C 316.500 72.920,318.970 70.500,319.139 70.500 C 319.238 70.500,319.506 70.313,319.735 70.083 C 319.964 69.854,320.216 69.667,320.294 69.667 C 320.373 69.667,320.586 69.535,320.767 69.375 C 321.186 69.005,321.996 68.507,322.375 68.387 C 322.535 68.336,322.667 68.228,322.667 68.147 C 322.667 68.066,322.817 68.000,323.000 68.000 C 323.183 68.000,323.333 67.925,323.333 67.833 C 323.333 67.742,323.521 67.667,323.750 67.667 C 323.979 67.667,324.167 67.592,324.167 67.500 C 324.167 67.408,324.317 67.333,324.500 67.333 C 324.683 67.333,324.833 67.258,324.833 67.167 C 324.833 67.075,325.058 67.000,325.333 67.000 C 325.608 67.000,325.833 66.925,325.833 66.833 C 325.833 66.742,326.091 66.667,326.407 66.667 C 326.722 66.667,327.027 66.592,327.083 66.500 C 327.140 66.408,327.519 66.333,327.927 66.333 C 328.334 66.333,328.667 66.258,328.667 66.167 C 328.667 66.060,330.028 66.000,332.417 66.000 C 334.806 66.000,336.167 66.060,336.167 66.167 C 336.167 66.258,336.467 66.333,336.833 66.333 C 337.200 66.333,337.500 66.408,337.500 66.500 C 337.500 66.592,337.762 66.667,338.083 66.667 C 338.404 66.667,338.667 66.742,338.667 66.833 C 338.667 66.925,338.892 67.000,339.167 67.000 C 339.442 67.000,339.667 67.075,339.667 67.167 C 339.667 67.258,339.850 67.333,340.073 67.333 C 340.297 67.333,340.527 67.408,340.583 67.500 C 340.640 67.592,340.832 67.667,341.010 67.667 C 341.188 67.667,341.333 67.742,341.333 67.833 C 341.333 67.925,341.483 68.000,341.667 68.000 C 341.850 68.000,342.000 68.075,342.000 68.167 C 342.000 68.258,342.113 68.333,342.250 68.333 C 342.387 68.333,342.500 68.408,342.500 68.500 C 342.500 68.592,342.650 68.667,342.833 68.667 C 343.017 68.667,343.167 68.742,343.167 68.833 C 343.167 68.925,343.317 69.000,343.500 69.000 C 343.683 69.000,343.833 69.075,343.833 69.167 C 343.833 69.258,343.983 69.333,344.167 69.333 C 344.350 69.333,344.500 69.403,344.500 69.489 C 344.500 69.574,344.641 69.689,344.814 69.744 C 344.986 69.798,345.297 69.991,345.506 70.172 C 345.714 70.352,346.023 70.500,346.192 70.500 C 346.361 70.500,346.500 70.558,346.500 70.629 C 346.500 70.700,346.912 71.201,347.417 71.742 C 347.921 72.284,348.333 72.794,348.333 72.876 C 348.333 73.565,349.508 73.697,349.847 73.046 C 349.977 72.796,350.327 72.330,350.625 72.011 C 350.923 71.692,351.167 71.331,351.167 71.209 C 351.167 71.087,351.467 70.701,351.833 70.352 C 352.200 70.004,352.500 69.669,352.500 69.609 C 352.500 69.549,352.800 69.191,353.167 68.813 C 353.533 68.436,353.833 68.058,353.833 67.974 C 353.833 67.891,354.090 67.566,354.403 67.253 C 354.716 66.940,355.021 66.530,355.081 66.342 C 355.140 66.154,355.258 66.000,355.342 66.000 C 355.427 66.000,355.697 65.681,355.942 65.292 C 356.188 64.902,356.587 64.396,356.829 64.167 C 358.620 62.469,358.759 58.081,357.074 56.396 C 356.764 56.087,356.414 55.833,356.296 55.833 C 356.177 55.833,355.987 55.683,355.872 55.500 C 355.758 55.317,355.569 55.167,355.452 55.167 C 355.336 55.167,355.132 55.017,355.000 54.833 C 354.868 54.650,354.661 54.500,354.540 54.500 C 354.418 54.500,354.158 54.350,353.962 54.167 C 353.765 53.983,353.505 53.833,353.385 53.833 C 353.265 53.833,353.167 53.758,353.167 53.667 C 353.167 53.575,353.017 53.500,352.833 53.500 C 352.650 53.500,352.500 53.425,352.500 53.333 C 352.500 53.242,352.350 53.167,352.167 53.167 C 351.983 53.167,351.833 53.092,351.833 53.000 C 351.833 52.908,351.732 52.833,351.609 52.833 C 351.400 52.833,350.632 52.518,349.961 52.156 C 349.801 52.070,349.520 52.000,349.336 52.000 C 349.151 52.000,349.000 51.925,349.000 51.833 C 349.000 51.742,348.850 51.667,348.667 51.667 C 348.483 51.667,348.333 51.592,348.333 51.500 C 348.333 51.408,348.188 51.333,348.010 51.333 C 347.832 51.333,347.640 51.258,347.583 51.167 C 347.527 51.075,347.297 51.000,347.073 51.000 C 346.850 51.000,346.667 50.925,346.667 50.833 C 346.667 50.742,346.479 50.667,346.250 50.667 C 346.021 50.667,345.833 50.592,345.833 50.500 C 345.833 50.408,345.608 50.333,345.333 50.333 C 345.058 50.333,344.833 50.258,344.833 50.167 C 344.833 50.075,344.608 50.000,344.333 50.000 C 344.058 50.000,343.833 49.925,343.833 49.833 C 343.833 49.742,343.533 49.667,343.167 49.667 C 342.800 49.667,342.500 49.592,342.500 49.500 C 342.500 49.408,342.204 49.333,341.843 49.333 C 341.482 49.333,341.140 49.258,341.083 49.167 C 341.027 49.075,340.610 49.000,340.157 49.000 C 339.704 49.000,339.333 48.931,339.333 48.847 C 339.333 48.502,327.836 48.167,327.333 48.497 " stroke="none" fill="#3cb35b" fill-rule="evenodd"></path><path id="path2" d="M0.000 63.167 L 0.000 125.500 29.333 125.500 L 58.667 125.500 58.667 116.167 L 58.667 106.833 38.917 106.833 L 19.167 106.833 19.167 88.667 L 19.167 70.500 37.667 70.500 L 56.167 70.500 56.167 61.250 L 56.167 52.000 37.667 52.000 L 19.167 52.000 19.167 35.750 L 19.167 19.500 38.917 19.500 L 58.667 19.500 58.667 10.167 L 58.667 0.833 29.333 0.833 L 0.000 0.833 0.000 63.167 M264.667 22.917 L 264.667 34.167 274.000 34.167 L 283.333 34.167 283.333 22.917 L 283.333 11.667 274.000 11.667 L 264.667 11.667 264.667 22.917 M264.667 87.917 L 264.667 125.500 274.000 125.500 L 283.333 125.500 283.333 87.917 L 283.333 50.333 274.000 50.333 L 264.667 50.333 264.667 87.917 " stroke="none" fill="#4c93f4" fill-rule="evenodd"></path><path id="path3" d="M59.667 1.250 C 59.667 1.479,59.742 1.667,59.833 1.667 C 59.925 1.667,60.000 1.817,60.000 2.000 C 60.000 2.183,60.075 2.333,60.167 2.333 C 60.258 2.333,60.333 2.558,60.333 2.833 C 60.333 3.108,60.408 3.333,60.500 3.333 C 60.592 3.333,60.667 3.483,60.667 3.667 C 60.667 3.850,60.742 4.000,60.833 4.000 C 60.925 4.000,61.000 4.225,61.000 4.500 C 61.000 4.775,61.075 5.000,61.167 5.000 C 61.258 5.000,61.333 5.150,61.333 5.333 C 61.333 5.517,61.408 5.667,61.500 5.667 C 61.592 5.667,61.667 5.854,61.667 6.083 C 61.667 6.313,61.742 6.500,61.833 6.500 C 61.925 6.500,62.000 6.650,62.000 6.833 C 62.000 7.017,62.075 7.167,62.167 7.167 C 62.258 7.167,62.333 7.392,62.333 7.667 C 62.333 7.942,62.408 8.167,62.500 8.167 C 62.592 8.167,62.667 8.317,62.667 8.500 C 62.667 8.683,62.746 8.833,62.843 8.833 C 62.940 8.833,62.974 8.907,62.918 8.998 C 62.862 9.089,62.970 9.511,63.158 9.936 C 63.346 10.361,63.500 10.850,63.500 11.021 C 63.500 11.193,63.575 11.333,63.667 11.333 C 63.758 11.333,63.833 11.483,63.833 11.667 C 63.833 11.850,63.908 12.000,64.000 12.000 C 64.092 12.000,64.167 12.225,64.167 12.500 C 64.167 12.775,64.242 13.000,64.333 13.000 C 64.425 13.000,64.500 13.150,64.500 13.333 C 64.500 13.517,64.575 13.667,64.667 13.667 C 64.758 13.667,64.833 13.892,64.833 14.167 C 64.833 14.442,64.908 14.667,65.000 14.667 C 65.092 14.667,65.167 14.817,65.167 15.000 C 65.167 15.183,65.242 15.333,65.333 15.333 C 65.425 15.333,65.500 15.521,65.500 15.750 C 65.500 15.979,65.575 16.167,65.667 16.167 C 65.758 16.167,65.833 16.312,65.833 16.490 C 65.833 16.668,65.908 16.860,66.000 16.917 C 66.092 16.973,66.167 17.203,66.167 17.427 C 66.167 17.650,66.242 17.833,66.333 17.833 C 66.425 17.833,66.500 17.979,66.500 18.157 C 66.500 18.335,66.575 18.527,66.667 18.583 C 66.758 18.640,66.833 18.869,66.833 19.093 C 66.833 19.317,66.908 19.500,67.000 19.500 C 67.092 19.500,67.167 19.646,67.167 19.823 C 67.167 20.001,67.232 20.187,67.312 20.237 C 67.392 20.286,67.515 20.572,67.585 20.872 C 67.656 21.171,67.728 21.454,67.746 21.500 C 67.764 21.546,67.835 21.733,67.905 21.917 C 68.283 22.921,68.505 23.461,68.983 24.540 C 69.176 24.974,69.333 25.443,69.333 25.582 C 69.333 25.720,69.408 25.833,69.500 25.833 C 69.592 25.833,69.667 26.016,69.667 26.240 C 69.667 26.464,69.742 26.693,69.833 26.750 C 69.925 26.807,70.000 26.999,70.000 27.177 C 70.000 27.354,70.075 27.500,70.167 27.500 C 70.258 27.500,70.333 27.688,70.333 27.917 C 70.333 28.146,70.408 28.333,70.500 28.333 C 70.592 28.333,70.667 28.479,70.667 28.657 C 70.667 28.835,70.742 29.027,70.833 29.083 C 70.925 29.140,71.000 29.369,71.000 29.593 C 71.000 29.817,71.075 30.000,71.167 30.000 C 71.258 30.000,71.333 30.150,71.333 30.333 C 71.333 30.517,71.408 30.667,71.500 30.667 C 71.592 30.667,71.667 30.885,71.667 31.153 C 71.667 31.420,71.723 31.664,71.792 31.694 C 71.895 31.740,72.390 32.954,72.562 33.583 C 72.587 33.675,72.733 34.040,72.887 34.395 C 73.041 34.750,73.167 35.144,73.167 35.270 C 73.167 35.397,73.242 35.500,73.333 35.500 C 73.425 35.500,73.500 35.683,73.500 35.907 C 73.500 36.131,73.575 36.360,73.667 36.417 C 73.758 36.473,73.833 36.665,73.833 36.843 C 73.833 37.021,73.908 37.167,74.000 37.167 C 74.092 37.167,74.167 37.354,74.167 37.583 C 74.167 37.813,74.242 38.000,74.333 38.000 C 74.425 38.000,74.500 38.150,74.500 38.333 C 74.500 38.517,74.575 38.667,74.667 38.667 C 74.758 38.667,74.833 38.892,74.833 39.167 C 74.833 39.442,74.908 39.667,75.000 39.667 C 75.092 39.667,75.167 39.817,75.167 40.000 C 75.167 40.183,75.242 40.333,75.333 40.333 C 75.425 40.333,75.500 40.516,75.500 40.740 C 75.500 40.964,75.575 41.193,75.667 41.250 C 75.758 41.307,75.833 41.499,75.833 41.677 C 75.833 41.854,75.908 42.000,76.000 42.000 C 76.092 42.000,76.167 42.188,76.167 42.417 C 76.167 42.646,76.242 42.833,76.333 42.833 C 76.425 42.833,76.500 42.983,76.500 43.167 C 76.500 43.350,76.575 43.500,76.667 43.500 C 76.758 43.500,76.833 43.695,76.833 43.933 C 76.833 44.171,76.953 44.640,77.100 44.975 C 77.247 45.309,77.443 45.771,77.536 46.000 C 77.629 46.229,77.772 46.547,77.853 46.706 C 77.934 46.865,78.000 47.146,78.000 47.331 C 78.000 47.516,78.075 47.667,78.167 47.667 C 78.258 47.667,78.333 47.817,78.333 48.000 C 78.333 48.183,78.408 48.333,78.500 48.333 C 78.592 48.333,78.667 48.558,78.667 48.833 C 78.667 49.108,78.742 49.333,78.833 49.333 C 78.925 49.333,79.000 49.483,79.000 49.667 C 79.000 49.850,79.075 50.000,79.167 50.000 C 79.258 50.000,79.333 50.183,79.333 50.407 C 79.333 50.631,79.408 50.860,79.500 50.917 C 79.592 50.973,79.667 51.165,79.667 51.343 C 79.667 51.521,79.742 51.667,79.833 51.667 C 79.925 51.667,80.000 51.854,80.000 52.083 C 80.000 52.313,80.075 52.500,80.167 52.500 C 80.258 52.500,80.333 52.650,80.333 52.833 C 80.333 53.017,80.408 53.167,80.500 53.167 C 80.592 53.167,80.667 53.392,80.667 53.667 C 80.667 53.942,80.742 54.167,80.833 54.167 C 80.925 54.167,81.000 54.317,81.000 54.500 C 81.000 54.683,81.075 54.833,81.167 54.833 C 81.258 54.833,81.333 55.058,81.333 55.333 C 81.333 55.608,81.413 55.833,81.510 55.833 C 81.607 55.833,81.642 55.905,81.588 55.993 C 81.493 56.146,81.540 56.283,81.974 57.123 C 82.080 57.328,82.167 57.609,82.167 57.748 C 82.167 57.886,82.242 58.000,82.333 58.000 C 82.425 58.000,82.500 58.183,82.500 58.407 C 82.500 58.631,82.575 58.860,82.667 58.917 C 82.758 58.973,82.833 59.165,82.833 59.343 C 82.833 59.521,82.908 59.667,83.000 59.667 C 83.092 59.667,83.167 59.802,83.167 59.967 C 83.167 60.339,83.539 61.164,83.708 61.165 C 83.777 61.166,83.833 61.392,83.833 61.667 C 83.833 61.942,83.908 62.167,84.000 62.167 C 84.092 62.167,84.167 62.317,84.167 62.500 C 84.167 62.683,84.242 62.833,84.333 62.833 C 84.425 62.833,84.500 63.058,84.500 63.333 C 84.500 63.608,84.575 63.833,84.667 63.833 C 84.758 63.833,84.833 63.983,84.833 64.167 C 84.833 64.350,84.908 64.500,85.000 64.500 C 85.092 64.500,85.167 64.635,85.167 64.800 C 85.167 65.173,85.539 65.997,85.708 65.999 C 85.777 65.999,85.833 66.221,85.833 66.490 C 85.833 66.760,85.895 67.019,85.971 67.065 C 86.047 67.112,86.249 67.642,86.421 68.242 C 86.592 68.842,86.793 69.333,86.866 69.333 C 86.940 69.333,87.000 69.521,87.000 69.750 C 87.000 69.979,87.075 70.167,87.167 70.167 C 87.258 70.167,87.333 70.312,87.333 70.490 C 87.333 70.668,87.408 70.860,87.500 70.917 C 87.592 70.973,87.667 71.203,87.667 71.427 C 87.667 71.650,87.742 71.833,87.833 71.833 C 87.925 71.833,88.000 71.983,88.000 72.167 C 88.000 72.350,88.075 72.500,88.167 72.500 C 88.258 72.500,88.333 72.725,88.333 73.000 C 88.333 73.275,88.408 73.500,88.500 73.500 C 88.592 73.500,88.667 73.646,88.667 73.823 C 88.667 74.001,88.742 74.193,88.833 74.250 C 88.925 74.307,89.000 74.499,89.000 74.677 C 89.000 74.854,89.075 75.000,89.167 75.000 C 89.258 75.000,89.333 75.183,89.333 75.407 C 89.333 75.631,89.408 75.860,89.500 75.917 C 89.592 75.973,89.667 76.165,89.667 76.343 C 89.667 76.521,89.742 76.667,89.833 76.667 C 89.925 76.667,90.000 76.850,90.000 77.073 C 90.000 77.297,90.075 77.527,90.167 77.583 C 90.258 77.640,90.333 77.832,90.333 78.010 C 90.333 78.188,90.408 78.333,90.500 78.333 C 90.592 78.333,90.667 78.508,90.667 78.722 C 90.667 78.936,90.723 79.167,90.792 79.236 C 90.860 79.305,90.923 79.411,90.931 79.472 C 90.938 79.533,91.038 79.808,91.151 80.083 C 91.265 80.358,91.399 80.790,91.450 81.042 C 91.500 81.294,91.607 81.500,91.688 81.500 C 91.768 81.500,91.833 81.614,91.833 81.752 C 91.833 81.891,91.900 82.135,91.981 82.294 C 92.062 82.453,92.220 82.808,92.333 83.083 C 92.446 83.358,92.605 83.714,92.686 83.873 C 92.767 84.032,92.833 84.276,92.833 84.414 C 92.833 84.553,92.908 84.667,93.000 84.667 C 93.092 84.667,93.167 84.850,93.167 85.073 C 93.167 85.297,93.242 85.527,93.333 85.583 C 93.425 85.640,93.500 85.832,93.500 86.010 C 93.500 86.188,93.575 86.333,93.667 86.333 C 93.758 86.333,93.833 86.516,93.833 86.740 C 93.833 86.964,93.908 87.193,94.000 87.250 C 94.092 87.307,94.167 87.499,94.167 87.677 C 94.167 87.854,94.242 88.000,94.333 88.000 C 94.425 88.000,94.500 88.188,94.500 88.417 C 94.500 88.646,94.575 88.833,94.667 88.833 C 94.758 88.833,94.833 88.983,94.833 89.167 C 94.833 89.350,94.908 89.500,95.000 89.500 C 95.092 89.500,95.167 89.721,95.167 89.990 C 95.167 90.260,95.236 90.523,95.321 90.575 C 95.405 90.628,95.527 90.911,95.592 91.205 C 95.656 91.499,95.766 91.854,95.835 91.995 C 95.904 92.135,96.054 92.475,96.167 92.750 C 96.280 93.025,96.438 93.380,96.519 93.539 C 96.600 93.699,96.667 93.942,96.667 94.081 C 96.667 94.220,96.742 94.333,96.833 94.333 C 96.925 94.333,97.000 94.516,97.000 94.740 C 97.000 94.964,97.075 95.193,97.167 95.250 C 97.258 95.307,97.333 95.499,97.333 95.677 C 97.333 95.854,97.408 96.000,97.500 96.000 C 97.592 96.000,97.667 96.188,97.667 96.417 C 97.667 96.646,97.742 96.833,97.833 96.833 C 97.925 96.833,98.000 96.983,98.000 97.167 C 98.000 97.350,98.075 97.500,98.167 97.500 C 98.258 97.500,98.333 97.725,98.333 98.000 C 98.333 98.275,98.408 98.500,98.500 98.500 C 98.592 98.500,98.667 98.650,98.667 98.833 C 98.667 99.017,98.742 99.167,98.833 99.167 C 98.925 99.167,99.000 99.392,99.000 99.667 C 99.000 99.942,99.075 100.167,99.167 100.167 C 99.258 100.167,99.333 100.317,99.333 100.500 C 99.333 100.683,99.408 100.833,99.500 100.833 C 99.592 100.833,99.667 101.021,99.667 101.250 C 99.667 101.479,99.742 101.667,99.833 101.667 C 99.925 101.667,100.000 101.757,100.000 101.867 C 100.000 102.255,100.576 104.000,100.704 104.000 C 100.775 104.000,100.833 104.183,100.833 104.407 C 100.833 104.631,100.908 104.860,101.000 104.917 C 101.092 104.973,101.167 105.165,101.167 105.343 C 101.167 105.521,101.242 105.667,101.333 105.667 C 101.425 105.667,101.500 105.854,101.500 106.083 C 101.500 106.313,101.575 106.500,101.667 106.500 C 101.758 106.500,101.833 106.650,101.833 106.833 C 101.833 107.017,101.908 107.167,102.000 107.167 C 102.092 107.167,102.167 107.392,102.167 107.667 C 102.167 107.942,102.242 108.167,102.333 108.167 C 102.425 108.167,102.500 108.317,102.500 108.500 C 102.500 108.683,102.575 108.833,102.667 108.833 C 102.758 108.833,102.833 109.058,102.833 109.333 C 102.833 109.608,102.908 109.833,103.000 109.833 C 103.092 109.833,103.167 109.983,103.167 110.167 C 103.167 110.350,103.242 110.500,103.333 110.500 C 103.425 110.500,103.500 110.688,103.500 110.917 C 103.500 111.146,103.575 111.333,103.667 111.333 C 103.758 111.333,103.833 111.483,103.833 111.667 C 103.833 111.850,103.908 112.000,104.000 112.000 C 104.092 112.000,104.167 112.225,104.167 112.500 C 104.167 112.775,104.242 113.000,104.333 113.000 C 104.425 113.000,104.500 113.150,104.500 113.333 C 104.500 113.517,104.556 113.667,104.625 113.667 C 104.694 113.667,104.760 113.849,104.773 114.071 C 104.786 114.293,104.917 114.717,105.065 115.013 C 105.213 115.309,105.333 115.690,105.333 115.859 C 105.333 116.028,105.408 116.167,105.500 116.167 C 105.592 116.167,105.667 116.317,105.667 116.500 C 105.667 116.683,105.742 116.833,105.833 116.833 C 105.925 116.833,106.000 117.058,106.000 117.333 C 106.000 117.608,106.075 117.833,106.167 117.833 C 106.258 117.833,106.333 117.983,106.333 118.167 C 106.333 118.350,106.408 118.500,106.500 118.500 C 106.592 118.500,106.667 118.683,106.667 118.907 C 106.667 119.131,106.742 119.360,106.833 119.417 C 106.925 119.473,107.000 119.665,107.000 119.843 C 107.000 120.021,107.075 120.167,107.167 120.167 C 107.258 120.167,107.333 120.354,107.333 120.583 C 107.333 120.813,107.408 121.000,107.500 121.000 C 107.592 121.000,107.667 121.146,107.667 121.323 C 107.667 121.501,107.742 121.693,107.833 121.750 C 107.925 121.807,108.000 122.036,108.000 122.260 C 108.000 122.484,108.075 122.667,108.167 122.667 C 108.258 122.667,108.333 122.780,108.333 122.919 C 108.333 123.058,108.400 123.301,108.482 123.461 C 108.872 124.221,109.319 125.299,109.431 125.750 C 109.756 127.050,109.666 127.000,111.684 127.000 C 113.187 127.000,113.500 126.957,113.500 126.750 C 113.500 126.612,113.568 126.500,113.652 126.500 C 113.736 126.500,113.857 126.186,113.922 125.803 C 113.986 125.420,114.181 124.855,114.353 124.548 C 114.526 124.241,114.667 123.842,114.667 123.662 C 114.667 123.481,114.742 123.333,114.833 123.333 C 114.925 123.333,115.000 123.183,115.000 123.000 C 115.000 122.817,115.075 122.667,115.167 122.667 C 115.258 122.667,115.333 122.442,115.333 122.167 C 115.333 121.892,115.408 121.667,115.500 121.667 C 115.592 121.667,115.667 121.517,115.667 121.333 C 115.667 121.150,115.742 121.000,115.833 121.000 C 115.925 121.000,116.000 120.817,116.000 120.593 C 116.000 120.369,116.075 120.140,116.167 120.083 C 116.258 120.027,116.333 119.835,116.333 119.657 C 116.333 119.479,116.408 119.333,116.500 119.333 C 116.592 119.333,116.667 119.146,116.667 118.917 C 116.667 118.688,116.742 118.500,116.833 118.500 C 116.925 118.500,117.000 118.354,117.000 118.177 C 117.000 117.999,117.075 117.807,117.167 117.750 C 117.258 117.693,117.333 117.464,117.333 117.240 C 117.333 117.016,117.408 116.833,117.500 116.833 C 117.592 116.833,117.667 116.720,117.667 116.582 C 117.667 116.356,118.128 115.195,118.502 114.479 C 118.580 114.330,118.695 113.935,118.757 113.602 C 118.820 113.269,118.938 112.955,119.019 112.905 C 119.100 112.855,119.167 112.631,119.167 112.407 C 119.167 112.183,119.225 112.000,119.297 112.000 C 119.369 112.000,119.527 111.662,119.649 111.250 C 119.770 110.837,119.937 110.500,120.018 110.500 C 120.100 110.500,120.167 110.275,120.167 110.000 C 120.167 109.725,120.242 109.500,120.333 109.500 C 120.425 109.500,120.500 109.350,120.500 109.167 C 120.500 108.983,120.575 108.833,120.667 108.833 C 120.758 108.833,120.833 108.608,120.833 108.333 C 120.833 108.058,120.908 107.833,121.000 107.833 C 121.092 107.833,121.167 107.683,121.167 107.500 C 121.167 107.317,121.242 107.167,121.333 107.167 C 121.425 107.167,121.500 107.019,121.500 106.838 C 121.500 106.658,121.650 106.243,121.833 105.917 C 122.017 105.590,122.167 105.175,122.167 104.995 C 122.167 104.814,122.228 104.667,122.303 104.667 C 122.378 104.667,122.542 104.292,122.667 103.833 C 122.791 103.375,122.950 103.000,123.020 103.000 C 123.089 103.000,123.197 102.662,123.259 102.250 C 123.321 101.837,123.438 101.500,123.519 101.500 C 123.600 101.500,123.667 101.354,123.667 101.177 C 123.667 100.999,123.742 100.807,123.833 100.750 C 123.925 100.693,124.000 100.464,124.000 100.240 C 124.000 100.016,124.075 99.833,124.167 99.833 C 124.258 99.833,124.333 99.683,124.333 99.500 C 124.333 99.317,124.408 99.167,124.500 99.167 C 124.592 99.167,124.667 98.942,124.667 98.667 C 124.667 98.392,124.742 98.167,124.833 98.167 C 124.925 98.167,125.000 98.017,125.000 97.833 C 125.000 97.650,125.075 97.500,125.167 97.500 C 125.258 97.500,125.333 97.313,125.333 97.083 C 125.333 96.854,125.408 96.667,125.500 96.667 C 125.592 96.667,125.667 96.484,125.667 96.260 C 125.667 96.036,125.742 95.807,125.833 95.750 C 125.925 95.693,126.000 95.501,126.000 95.323 C 126.000 95.146,126.075 95.000,126.167 95.000 C 126.258 95.000,126.333 94.817,126.333 94.593 C 126.333 94.369,126.408 94.140,126.500 94.083 C 126.592 94.027,126.667 93.835,126.667 93.657 C 126.667 93.479,126.742 93.333,126.833 93.333 C 126.925 93.333,127.000 93.197,127.000 93.031 C 127.000 92.865,127.143 92.433,127.319 92.070 C 127.494 91.707,127.690 91.131,127.754 90.789 C 127.818 90.447,127.937 90.167,128.019 90.167 C 128.100 90.167,128.167 89.942,128.167 89.667 C 128.167 89.392,128.242 89.167,128.333 89.167 C 128.425 89.167,128.500 89.017,128.500 88.833 C 128.500 88.650,128.575 88.500,128.667 88.500 C 128.758 88.500,128.833 88.313,128.833 88.083 C 128.833 87.854,128.908 87.667,129.000 87.667 C 129.092 87.667,129.167 87.517,129.167 87.333 C 129.167 87.150,129.242 87.000,129.333 87.000 C 129.425 87.000,129.500 86.775,129.500 86.500 C 129.500 86.225,129.575 86.000,129.667 86.000 C 129.758 86.000,129.833 85.854,129.833 85.677 C 129.833 85.499,129.908 85.307,130.000 85.250 C 130.092 85.193,130.167 84.964,130.167 84.740 C 130.167 84.516,130.242 84.333,130.333 84.333 C 130.425 84.333,130.500 84.183,130.500 84.000 C 130.500 83.817,130.575 83.667,130.667 83.667 C 130.758 83.667,130.833 83.479,130.833 83.250 C 130.833 83.021,130.895 82.833,130.970 82.833 C 131.045 82.833,131.209 82.458,131.333 82.000 C 131.458 81.542,131.605 81.167,131.660 81.167 C 131.715 81.167,131.865 80.812,131.993 80.379 C 132.121 79.945,132.325 79.401,132.445 79.170 C 132.566 78.939,132.665 78.581,132.666 78.375 C 132.666 78.169,132.742 78.000,132.833 78.000 C 132.925 78.000,133.000 77.817,133.000 77.593 C 133.000 77.369,133.075 77.140,133.167 77.083 C 133.258 77.027,133.333 76.835,133.333 76.657 C 133.333 76.479,133.408 76.333,133.500 76.333 C 133.592 76.333,133.667 76.150,133.667 75.927 C 133.667 75.703,133.742 75.473,133.833 75.417 C 133.925 75.360,134.000 75.168,134.000 74.990 C 134.000 74.812,134.075 74.667,134.167 74.667 C 134.258 74.667,134.333 74.479,134.333 74.250 C 134.333 74.021,134.408 73.833,134.500 73.833 C 134.592 73.833,134.667 73.688,134.667 73.510 C 134.667 73.332,134.742 73.140,134.833 73.083 C 134.925 73.027,135.000 72.797,135.000 72.573 C 135.000 72.350,135.075 72.167,135.167 72.167 C 135.258 72.167,135.333 72.021,135.333 71.843 C 135.333 71.665,135.408 71.473,135.500 71.417 C 135.592 71.360,135.667 71.131,135.667 70.907 C 135.667 70.683,135.742 70.500,135.833 70.500 C 135.925 70.500,136.000 70.350,136.000 70.167 C 136.000 69.983,136.075 69.833,136.167 69.833 C 136.258 69.833,136.333 69.697,136.333 69.531 C 136.333 69.365,136.477 68.933,136.652 68.570 C 136.827 68.207,137.023 67.631,137.087 67.289 C 137.151 66.947,137.270 66.667,137.352 66.667 C 137.433 66.667,137.500 66.479,137.500 66.250 C 137.500 66.021,137.575 65.833,137.667 65.833 C 137.758 65.833,137.833 65.646,137.833 65.417 C 137.833 65.188,137.908 65.000,138.000 65.000 C 138.092 65.000,138.167 64.813,138.167 64.583 C 138.167 64.354,138.242 64.167,138.333 64.167 C 138.425 64.167,138.500 64.021,138.500 63.843 C 138.500 63.665,138.575 63.473,138.667 63.417 C 138.758 63.360,138.833 63.131,138.833 62.907 C 138.833 62.683,138.908 62.500,139.000 62.500 C 139.092 62.500,139.167 62.384,139.167 62.242 C 139.167 62.100,139.317 61.673,139.500 61.294 C 139.683 60.915,139.833 60.468,139.833 60.302 C 139.833 60.136,139.908 60.000,140.000 60.000 C 140.092 60.000,140.167 59.854,140.167 59.677 C 140.167 59.499,140.242 59.307,140.333 59.250 C 140.425 59.193,140.500 58.964,140.500 58.740 C 140.500 58.516,140.575 58.333,140.667 58.333 C 140.758 58.333,140.833 58.183,140.833 58.000 C 140.833 57.817,140.908 57.667,141.000 57.667 C 141.092 57.667,141.167 57.442,141.167 57.167 C 141.167 56.892,141.230 56.667,141.308 56.667 C 141.454 56.667,142.000 55.140,142.000 54.731 C 142.000 54.604,142.075 54.500,142.167 54.500 C 142.258 54.500,142.333 54.275,142.333 54.000 C 142.333 53.725,142.408 53.500,142.500 53.500 C 142.592 53.500,142.667 53.350,142.667 53.167 C 142.667 52.983,142.742 52.833,142.833 52.833 C 142.925 52.833,143.000 52.686,143.000 52.505 C 143.000 52.325,143.150 51.910,143.333 51.583 C 143.517 51.257,143.667 50.842,143.667 50.662 C 143.667 50.481,143.742 50.333,143.833 50.333 C 143.925 50.333,144.000 50.188,144.000 50.010 C 144.000 49.832,144.075 49.640,144.167 49.583 C 144.258 49.527,144.333 49.297,144.333 49.073 C 144.333 48.850,144.408 48.667,144.500 48.667 C 144.592 48.667,144.667 48.553,144.667 48.414 C 144.667 48.276,144.733 48.032,144.814 47.873 C 144.952 47.602,145.092 47.270,145.500 46.250 C 145.906 45.236,146.048 44.899,146.183 44.632 C 146.262 44.476,146.376 44.045,146.435 43.674 C 146.494 43.303,146.608 43.000,146.688 43.000 C 146.768 43.000,146.833 42.850,146.833 42.667 C 146.833 42.483,146.908 42.333,147.000 42.333 C 147.092 42.333,147.167 42.108,147.167 41.833 C 147.167 41.558,147.242 41.333,147.333 41.333 C 147.425 41.333,147.500 41.183,147.500 41.000 C 147.500 40.817,147.575 40.667,147.667 40.667 C 147.758 40.667,147.833 40.442,147.833 40.167 C 147.833 39.892,147.908 39.667,148.000 39.667 C 148.092 39.667,148.167 39.517,148.167 39.333 C 148.167 39.150,148.242 39.000,148.333 39.000 C 148.425 39.000,148.500 38.852,148.500 38.672 C 148.500 38.491,148.650 38.076,148.833 37.750 C 149.017 37.424,149.167 37.009,149.167 36.828 C 149.167 36.648,149.242 36.500,149.333 36.500 C 149.425 36.500,149.500 36.354,149.500 36.177 C 149.500 35.999,149.575 35.807,149.667 35.750 C 149.758 35.693,149.833 35.464,149.833 35.240 C 149.833 35.016,149.908 34.833,150.000 34.833 C 150.092 34.833,150.167 34.720,150.167 34.581 C 150.167 34.442,150.233 34.199,150.314 34.039 C 150.395 33.880,150.554 33.525,150.667 33.250 C 150.780 32.975,150.933 32.628,151.008 32.479 C 151.083 32.330,151.195 31.936,151.257 31.604 C 151.319 31.272,151.437 31.000,151.519 31.000 C 151.600 31.000,151.667 30.775,151.667 30.500 C 151.667 30.225,151.742 30.000,151.833 30.000 C 151.925 30.000,152.000 29.850,152.000 29.667 C 152.000 29.483,152.075 29.333,152.167 29.333 C 152.258 29.333,152.333 29.146,152.333 28.917 C 152.333 28.688,152.408 28.500,152.500 28.500 C 152.592 28.500,152.667 28.317,152.667 28.093 C 152.667 27.869,152.742 27.640,152.833 27.583 C 152.925 27.527,153.000 27.335,153.000 27.157 C 153.000 26.979,153.075 26.833,153.167 26.833 C 153.258 26.833,153.333 26.650,153.333 26.427 C 153.333 26.203,153.408 25.973,153.500 25.917 C 153.592 25.860,153.667 25.668,153.667 25.490 C 153.667 25.312,153.742 25.167,153.833 25.167 C 153.925 25.167,154.000 24.979,154.000 24.750 C 154.000 24.521,154.075 24.333,154.167 24.333 C 154.258 24.333,154.333 24.188,154.333 24.010 C 154.333 23.832,154.408 23.640,154.500 23.583 C 154.592 23.527,154.667 23.297,154.667 23.073 C 154.667 22.850,154.742 22.667,154.833 22.667 C 154.925 22.667,155.000 22.521,155.000 22.343 C 155.000 22.165,155.075 21.973,155.167 21.917 C 155.258 21.860,155.333 21.631,155.333 21.407 C 155.333 21.183,155.404 21.000,155.490 21.000 C 155.576 21.000,155.697 20.663,155.759 20.250 C 155.821 19.837,155.938 19.500,156.019 19.500 C 156.100 19.500,156.167 19.350,156.167 19.167 C 156.167 18.983,156.242 18.833,156.333 18.833 C 156.425 18.833,156.500 18.608,156.500 18.333 C 156.500 18.058,156.575 17.833,156.667 17.833 C 156.758 17.833,156.833 17.683,156.833 17.500 C 156.833 17.317,156.908 17.167,157.000 17.167 C 157.092 17.167,157.167 16.942,157.167 16.667 C 157.167 16.392,157.242 16.167,157.333 16.167 C 157.425 16.167,157.500 16.017,157.500 15.833 C 157.500 15.650,157.575 15.500,157.667 15.500 C 157.758 15.500,157.833 15.313,157.833 15.083 C 157.833 14.854,157.908 14.667,158.000 14.667 C 158.092 14.667,158.167 14.521,158.167 14.343 C 158.167 14.165,158.242 13.973,158.333 13.917 C 158.425 13.860,158.500 13.631,158.500 13.407 C 158.500 13.183,158.575 13.000,158.667 13.000 C 158.758 13.000,158.833 12.817,158.833 12.593 C 158.833 12.369,158.908 12.140,159.000 12.083 C 159.092 12.027,159.167 11.835,159.167 11.657 C 159.167 11.479,159.242 11.333,159.333 11.333 C 159.425 11.333,159.500 11.146,159.500 10.917 C 159.500 10.688,159.561 10.500,159.637 10.500 C 159.712 10.500,159.875 10.125,160.000 9.667 C 160.125 9.208,160.286 8.833,160.358 8.833 C 160.430 8.833,160.538 8.458,160.599 8.000 C 160.660 7.542,160.775 7.167,160.855 7.167 C 160.935 7.167,161.000 7.017,161.000 6.833 C 161.000 6.650,161.075 6.500,161.167 6.500 C 161.258 6.500,161.333 6.313,161.333 6.083 C 161.333 5.854,161.408 5.667,161.500 5.667 C 161.592 5.667,161.667 5.517,161.667 5.333 C 161.667 5.150,161.742 5.000,161.833 5.000 C 161.925 5.000,162.000 4.775,162.000 4.500 C 162.000 4.225,162.075 4.000,162.167 4.000 C 162.258 4.000,162.333 3.850,162.333 3.667 C 162.333 3.483,162.408 3.333,162.500 3.333 C 162.592 3.333,162.667 3.108,162.667 2.833 C 162.667 2.558,162.742 2.333,162.833 2.333 C 162.925 2.333,163.000 2.183,163.000 2.000 C 163.000 1.817,163.075 1.667,163.167 1.667 C 163.258 1.667,163.333 1.479,163.333 1.249 L 163.333 0.831 152.708 0.874 C 144.749 0.906,142.083 0.965,142.083 1.111 C 142.083 1.218,142.027 1.362,141.958 1.431 C 141.890 1.499,141.833 1.691,141.833 1.856 C 141.833 2.021,141.683 2.424,141.500 2.750 C 141.317 3.076,141.167 3.491,141.167 3.672 C 141.167 3.852,141.092 4.000,141.000 4.000 C 140.908 4.000,140.833 4.146,140.833 4.323 C 140.833 4.501,140.758 4.693,140.667 4.750 C 140.575 4.807,140.500 5.036,140.500 5.260 C 140.500 5.484,140.425 5.667,140.333 5.667 C 140.242 5.667,140.167 5.814,140.167 5.995 C 140.167 6.175,140.017 6.590,139.833 6.917 C 139.650 7.243,139.500 7.658,139.500 7.838 C 139.500 8.019,139.425 8.167,139.333 8.167 C 139.242 8.167,139.167 8.312,139.167 8.490 C 139.167 8.668,139.092 8.860,139.000 8.917 C 138.908 8.973,138.833 9.203,138.833 9.427 C 138.833 9.650,138.772 9.833,138.697 9.833 C 138.622 9.833,138.458 10.208,138.333 10.667 C 138.209 11.125,138.045 11.500,137.970 11.500 C 137.895 11.500,137.833 11.641,137.833 11.814 C 137.833 11.987,137.721 12.343,137.584 12.606 C 137.447 12.869,137.335 13.248,137.334 13.448 C 137.334 13.649,137.258 13.860,137.167 13.917 C 137.075 13.973,137.000 14.165,137.000 14.343 C 137.000 14.521,136.925 14.667,136.833 14.667 C 136.742 14.667,136.667 14.892,136.667 15.167 C 136.667 15.442,136.592 15.667,136.500 15.667 C 136.408 15.667,136.333 15.817,136.333 16.000 C 136.333 16.183,136.258 16.333,136.167 16.333 C 136.075 16.333,136.000 16.521,136.000 16.750 C 136.000 16.979,135.925 17.167,135.833 17.167 C 135.742 17.167,135.667 17.350,135.667 17.573 C 135.667 17.797,135.592 18.027,135.500 18.083 C 135.408 18.140,135.333 18.332,135.333 18.510 C 135.333 18.688,135.258 18.833,135.167 18.833 C 135.075 18.833,135.000 19.058,135.000 19.333 C 135.000 19.608,134.925 19.833,134.833 19.833 C 134.742 19.833,134.667 19.983,134.667 20.167 C 134.667 20.350,134.592 20.500,134.500 20.500 C 134.408 20.500,134.333 20.688,134.333 20.917 C 134.333 21.146,134.272 21.333,134.197 21.333 C 134.122 21.333,133.958 21.708,133.833 22.167 C 133.709 22.625,133.545 23.000,133.470 23.000 C 133.395 23.000,133.333 23.183,133.333 23.407 C 133.333 23.631,133.268 23.854,133.188 23.903 C 133.070 23.976,132.866 24.605,132.768 25.194 C 132.758 25.256,132.694 25.362,132.625 25.431 C 132.556 25.499,132.500 25.693,132.500 25.861 C 132.500 26.029,132.425 26.167,132.333 26.167 C 132.242 26.167,132.167 26.392,132.167 26.667 C 132.167 26.942,132.092 27.167,132.000 27.167 C 131.908 27.167,131.833 27.317,131.833 27.500 C 131.833 27.683,131.758 27.833,131.667 27.833 C 131.575 27.833,131.500 28.058,131.500 28.333 C 131.500 28.608,131.441 28.833,131.370 28.833 C 131.298 28.833,131.140 29.171,131.018 29.583 C 130.896 29.996,130.730 30.333,130.648 30.333 C 130.567 30.333,130.500 30.558,130.500 30.833 C 130.500 31.108,130.425 31.333,130.333 31.333 C 130.242 31.333,130.167 31.483,130.167 31.667 C 130.167 31.850,130.092 32.000,130.000 32.000 C 129.908 32.000,129.833 32.225,129.833 32.500 C 129.833 32.775,129.758 33.000,129.667 33.000 C 129.575 33.000,129.500 33.114,129.500 33.252 C 129.500 33.391,129.434 33.635,129.353 33.794 C 129.272 33.953,129.132 34.271,129.042 34.500 C 128.952 34.729,128.800 35.104,128.704 35.333 C 128.542 35.723,128.314 36.310,128.251 36.500 C 128.236 36.546,128.165 36.865,128.094 37.208 C 128.022 37.552,127.896 37.833,127.815 37.833 C 127.733 37.833,127.667 37.981,127.667 38.162 C 127.667 38.342,127.517 38.757,127.333 39.083 C 127.150 39.410,127.000 39.825,127.000 40.005 C 127.000 40.186,126.925 40.333,126.833 40.333 C 126.742 40.333,126.667 40.479,126.667 40.657 C 126.667 40.835,126.592 41.027,126.500 41.083 C 126.408 41.140,126.333 41.369,126.333 41.593 C 126.333 41.817,126.258 42.000,126.167 42.000 C 126.075 42.000,126.000 42.148,126.000 42.328 C 126.000 42.509,125.850 42.924,125.667 43.250 C 125.483 43.576,125.333 43.991,125.333 44.172 C 125.333 44.352,125.258 44.500,125.167 44.500 C 125.075 44.500,125.000 44.646,125.000 44.823 C 125.000 45.001,124.925 45.193,124.833 45.250 C 124.742 45.307,124.667 45.536,124.667 45.760 C 124.667 45.984,124.605 46.167,124.530 46.167 C 124.455 46.167,124.291 46.542,124.167 47.000 C 124.042 47.458,123.878 47.833,123.803 47.833 C 123.728 47.833,123.667 48.016,123.667 48.240 C 123.667 48.464,123.587 48.697,123.489 48.757 C 123.391 48.818,123.351 48.972,123.400 49.100 C 123.449 49.228,123.417 49.333,123.328 49.333 C 123.239 49.333,123.167 49.558,123.167 49.833 C 123.167 50.108,123.092 50.333,123.000 50.333 C 122.908 50.333,122.833 50.483,122.833 50.667 C 122.833 50.850,122.758 51.000,122.667 51.000 C 122.575 51.000,122.500 51.225,122.500 51.500 C 122.500 51.775,122.425 52.000,122.333 52.000 C 122.242 52.000,122.167 52.150,122.167 52.333 C 122.167 52.517,122.092 52.667,122.000 52.667 C 121.908 52.667,121.833 52.854,121.833 53.083 C 121.833 53.313,121.758 53.500,121.667 53.500 C 121.575 53.500,121.500 53.683,121.500 53.907 C 121.500 54.131,121.425 54.360,121.333 54.417 C 121.242 54.473,121.167 54.665,121.167 54.843 C 121.167 55.021,121.092 55.167,121.000 55.167 C 120.908 55.167,120.833 55.392,120.833 55.667 C 120.833 55.942,120.758 56.167,120.667 56.167 C 120.575 56.167,120.500 56.317,120.500 56.500 C 120.500 56.683,120.425 56.833,120.333 56.833 C 120.242 56.833,120.167 57.021,120.167 57.250 C 120.167 57.479,120.105 57.667,120.030 57.667 C 119.955 57.667,119.791 58.042,119.667 58.500 C 119.542 58.958,119.378 59.333,119.303 59.333 C 119.228 59.333,119.167 59.508,119.167 59.722 C 119.167 59.936,119.114 60.163,119.051 60.227 C 118.922 60.356,118.878 60.502,118.730 61.292 C 118.674 61.590,118.562 61.833,118.481 61.833 C 118.400 61.833,118.333 61.983,118.333 62.167 C 118.333 62.350,118.258 62.500,118.167 62.500 C 118.075 62.500,118.000 62.725,118.000 63.000 C 118.000 63.275,117.925 63.500,117.833 63.500 C 117.742 63.500,117.667 63.650,117.667 63.833 C 117.667 64.017,117.592 64.167,117.500 64.167 C 117.408 64.167,117.333 64.392,117.333 64.667 C 117.333 64.942,117.275 65.167,117.203 65.167 C 117.131 65.167,116.973 65.504,116.851 65.917 C 116.730 66.329,116.563 66.667,116.482 66.667 C 116.400 66.667,116.333 66.892,116.333 67.167 C 116.333 67.442,116.258 67.667,116.167 67.667 C 116.075 67.667,116.000 67.817,116.000 68.000 C 116.000 68.183,115.925 68.333,115.833 68.333 C 115.742 68.333,115.667 68.558,115.667 68.833 C 115.667 69.108,115.592 69.333,115.500 69.333 C 115.408 69.333,115.333 69.447,115.333 69.586 C 115.333 69.724,115.267 69.968,115.186 70.127 C 115.105 70.286,114.965 70.604,114.875 70.833 C 114.785 71.063,114.636 71.438,114.543 71.667 C 114.451 71.896,114.290 72.295,114.185 72.554 C 114.081 72.813,114.035 73.089,114.084 73.168 C 114.132 73.246,114.096 73.357,114.003 73.415 C 113.910 73.473,113.833 73.665,113.833 73.843 C 113.833 74.021,113.758 74.167,113.667 74.167 C 113.575 74.167,113.500 74.314,113.500 74.495 C 113.500 74.675,113.350 75.090,113.167 75.417 C 112.983 75.743,112.833 76.158,112.833 76.338 C 112.833 76.519,112.758 76.667,112.667 76.667 C 112.575 76.667,112.500 76.812,112.500 76.990 C 112.500 77.168,112.425 77.360,112.333 77.417 C 112.242 77.473,112.167 77.703,112.167 77.927 C 112.167 78.222,112.076 78.333,111.833 78.333 C 111.574 78.333,111.500 78.222,111.500 77.833 C 111.500 77.558,111.425 77.333,111.333 77.333 C 111.242 77.333,111.167 77.183,111.167 77.000 C 111.167 76.817,111.092 76.667,111.000 76.667 C 110.908 76.667,110.833 76.484,110.833 76.260 C 110.833 76.036,110.758 75.807,110.667 75.750 C 110.575 75.693,110.500 75.501,110.500 75.323 C 110.500 75.146,110.425 75.000,110.333 75.000 C 110.242 75.000,110.167 74.813,110.167 74.583 C 110.167 74.354,110.092 74.167,110.000 74.167 C 109.908 74.167,109.833 74.021,109.833 73.843 C 109.833 73.665,109.768 73.480,109.689 73.431 C 109.610 73.382,109.504 73.086,109.453 72.775 C 109.402 72.463,109.215 71.906,109.037 71.538 C 108.859 71.170,108.612 70.523,108.487 70.101 C 108.363 69.679,108.202 69.333,108.130 69.333 C 108.059 69.333,108.000 69.150,108.000 68.927 C 108.000 68.703,107.925 68.473,107.833 68.417 C 107.742 68.360,107.667 68.168,107.667 67.990 C 107.667 67.812,107.592 67.667,107.500 67.667 C 107.408 67.667,107.333 67.519,107.333 67.338 C 107.333 67.158,107.183 66.743,107.000 66.417 C 106.817 66.090,106.667 65.675,106.667 65.495 C 106.667 65.314,106.592 65.167,106.500 65.167 C 106.408 65.167,106.333 65.017,106.333 64.833 C 106.333 64.650,106.258 64.500,106.167 64.500 C 106.075 64.500,106.000 64.275,106.000 64.000 C 106.000 63.725,105.925 63.500,105.833 63.500 C 105.742 63.500,105.667 63.354,105.667 63.177 C 105.667 62.999,105.592 62.807,105.500 62.750 C 105.408 62.693,105.333 62.464,105.333 62.240 C 105.333 62.016,105.258 61.833,105.167 61.833 C 105.075 61.833,105.000 61.646,105.000 61.417 C 105.000 61.188,104.933 61.000,104.852 61.000 C 104.770 61.000,104.652 60.724,104.589 60.387 C 104.525 60.050,104.322 59.431,104.137 59.012 C 103.952 58.593,103.724 58.063,103.631 57.833 C 103.537 57.604,103.395 57.286,103.314 57.127 C 103.233 56.968,103.167 56.687,103.167 56.502 C 103.167 56.318,103.092 56.167,103.000 56.167 C 102.908 56.167,102.833 56.017,102.833 55.833 C 102.833 55.650,102.758 55.500,102.667 55.500 C 102.575 55.500,102.500 55.317,102.500 55.093 C 102.500 54.869,102.425 54.640,102.333 54.583 C 102.242 54.527,102.167 54.335,102.167 54.157 C 102.167 53.979,102.092 53.833,102.000 53.833 C 101.908 53.833,101.833 53.650,101.833 53.427 C 101.833 53.203,101.758 52.973,101.667 52.917 C 101.575 52.860,101.500 52.668,101.500 52.490 C 101.500 52.312,101.425 52.167,101.333 52.167 C 101.242 52.167,101.167 51.979,101.167 51.750 C 101.167 51.521,101.092 51.333,101.000 51.333 C 100.908 51.333,100.833 51.150,100.833 50.927 C 100.833 50.703,100.758 50.473,100.667 50.417 C 100.575 50.360,100.500 50.168,100.500 49.990 C 100.500 49.812,100.435 49.667,100.355 49.667 C 100.275 49.667,100.164 49.385,100.109 49.041 C 100.054 48.696,99.857 48.100,99.671 47.715 C 99.485 47.331,99.333 46.900,99.333 46.758 C 99.333 46.616,99.258 46.500,99.167 46.500 C 99.075 46.500,99.000 46.317,99.000 46.093 C 99.000 45.869,98.925 45.640,98.833 45.583 C 98.742 45.527,98.667 45.335,98.667 45.157 C 98.667 44.979,98.592 44.833,98.500 44.833 C 98.408 44.833,98.333 44.686,98.333 44.505 C 98.333 44.325,98.183 43.910,98.000 43.583 C 97.817 43.257,97.667 42.842,97.667 42.662 C 97.667 42.481,97.592 42.333,97.500 42.333 C 97.408 42.333,97.333 42.188,97.333 42.010 C 97.333 41.832,97.258 41.640,97.167 41.583 C 97.075 41.527,97.000 41.297,97.000 41.073 C 97.000 40.850,96.925 40.667,96.833 40.667 C 96.742 40.667,96.667 40.479,96.667 40.250 C 96.667 40.021,96.592 39.833,96.500 39.833 C 96.408 39.833,96.333 39.646,96.333 39.417 C 96.333 39.188,96.258 39.000,96.167 39.000 C 96.075 39.000,96.000 38.813,96.000 38.583 C 96.000 38.354,95.925 38.167,95.833 38.167 C 95.742 38.167,95.667 38.017,95.667 37.833 C 95.667 37.650,95.592 37.500,95.500 37.500 C 95.408 37.500,95.333 37.294,95.332 37.042 C 95.332 36.790,95.219 36.369,95.082 36.106 C 94.945 35.843,94.833 35.559,94.833 35.473 C 94.833 35.387,94.683 35.007,94.500 34.627 C 94.317 34.248,94.167 33.801,94.167 33.635 C 94.167 33.469,94.092 33.333,94.000 33.333 C 93.908 33.333,93.833 33.183,93.833 33.000 C 93.833 32.817,93.758 32.667,93.667 32.667 C 93.575 32.667,93.500 32.442,93.500 32.167 C 93.500 31.892,93.425 31.667,93.333 31.667 C 93.242 31.667,93.167 31.517,93.167 31.333 C 93.167 31.150,93.092 31.000,93.000 31.000 C 92.908 31.000,92.833 30.849,92.833 30.664 C 92.833 30.480,92.758 30.180,92.667 29.998 C 92.575 29.816,92.425 29.518,92.333 29.336 C 92.242 29.154,92.167 28.891,92.167 28.752 C 92.167 28.614,92.092 28.500,92.000 28.500 C 91.908 28.500,91.833 28.275,91.833 28.000 C 91.833 27.725,91.758 27.500,91.667 27.500 C 91.575 27.500,91.500 27.350,91.500 27.167 C 91.500 26.983,91.425 26.833,91.333 26.833 C 91.242 26.833,91.167 26.650,91.167 26.427 C 91.167 26.203,91.101 25.979,91.022 25.930 C 90.942 25.881,90.831 25.614,90.776 25.338 C 90.721 25.061,90.523 24.521,90.338 24.136 C 90.152 23.752,90.000 23.306,90.000 23.145 C 90.000 22.984,89.925 22.807,89.833 22.750 C 89.742 22.693,89.667 22.501,89.667 22.323 C 89.667 22.146,89.592 22.000,89.500 22.000 C 89.408 22.000,89.333 21.864,89.333 21.698 C 89.333 21.532,89.183 21.085,89.000 20.706 C 88.817 20.327,88.667 19.900,88.667 19.758 C 88.667 19.616,88.592 19.500,88.500 19.500 C 88.408 19.500,88.333 19.317,88.333 19.093 C 88.333 18.869,88.258 18.640,88.167 18.583 C 88.075 18.527,88.000 18.335,88.000 18.157 C 88.000 17.979,87.925 17.833,87.833 17.833 C 87.742 17.833,87.667 17.650,87.667 17.427 C 87.667 17.203,87.592 16.973,87.500 16.917 C 87.408 16.860,87.333 16.668,87.333 16.490 C 87.333 16.312,87.258 16.167,87.167 16.167 C 87.075 16.167,87.000 15.979,87.000 15.750 C 87.000 15.521,86.925 15.333,86.833 15.333 C 86.742 15.333,86.667 15.183,86.667 15.000 C 86.667 14.817,86.592 14.667,86.500 14.667 C 86.408 14.667,86.333 14.442,86.333 14.167 C 86.333 13.892,86.258 13.667,86.167 13.667 C 86.075 13.667,86.000 13.563,86.000 13.436 C 86.000 13.027,85.454 11.500,85.308 11.500 C 85.230 11.500,85.167 11.349,85.167 11.164 C 85.167 10.980,85.100 10.699,85.019 10.539 C 84.882 10.269,84.741 9.936,84.333 8.917 C 83.925 7.897,83.785 7.565,83.647 7.294 C 83.566 7.135,83.500 6.854,83.500 6.669 C 83.500 6.484,83.425 6.333,83.333 6.333 C 83.242 6.333,83.167 6.183,83.167 6.000 C 83.167 5.817,83.092 5.667,83.000 5.667 C 82.908 5.667,82.833 5.442,82.833 5.167 C 82.833 4.892,82.758 4.667,82.667 4.667 C 82.575 4.667,82.500 4.517,82.500 4.333 C 82.500 4.150,82.425 4.000,82.333 4.000 C 82.242 4.000,82.167 3.852,82.167 3.672 C 82.167 3.491,82.026 3.092,81.853 2.785 C 81.681 2.478,81.486 1.913,81.422 1.530 L 81.304 0.833 70.485 0.833 L 59.667 0.833 59.667 1.250 M366.333 38.417 L 366.333 50.333 362.000 50.333 L 357.667 50.333 357.673 53.708 C 357.677 56.320,357.732 57.178,357.917 57.500 C 358.257 58.095,358.257 61.628,357.917 62.442 C 357.735 62.877,357.667 63.675,357.667 65.354 L 357.667 67.667 362.000 67.667 L 366.333 67.667 366.333 96.583 L 366.333 125.500 375.667 125.500 L 385.000 125.500 385.000 96.583 L 385.000 67.667 392.500 67.667 L 400.000 67.667 400.000 59.000 L 400.000 50.333 392.500 50.333 L 385.000 50.333 385.000 38.417 L 385.000 26.500 375.667 26.500 L 366.333 26.500 366.333 38.417 " stroke="none" fill="#ec4c3c" fill-rule="evenodd"></path><path id="path4" d="" stroke="none" fill="#a888c8" fill-rule="evenodd"></path></g></svg>